<?xml version="1.0" encoding="utf-8"?>
<!-- Generator: Adobe Illustrator 24.0.0, SVG Export Plug-In . SVG Version: 6.00 Build 0)  -->
<svg version="1.1" id="Capa_1" xmlns="http://www.w3.org/2000/svg" xmlns:xlink="http://www.w3.org/1999/xlink" x="0px" y="0px"
	 viewBox="0 0 1500.11 500" style="enable-background:new 0 0 1500.11 500;" xml:space="preserve">
<style type="text/css">
	.st0{fill:none;stroke:#374559;stroke-width:9;stroke-miterlimit:10;}
	.st1{fill:#374559;}
	.st2{fill:#B2B2B2;}
</style>
<g>
	<rect x="393.47" y="51.2" class="st0" width="1067.43" height="394.78"/>
	<g>
		<g>
			<path class="st1" d="M588.49,89.62l-62.01,302.38h-38.22L426.68,89.62h45.87l34.4,211.08h0.85l34.83-211.08H588.49z"/>
			<path class="st1" d="M611.84,160.97c0-12.17,2.12-22.93,6.37-32.28c4.25-9.34,9.91-17.13,16.99-23.36
				c6.8-5.95,14.51-10.47,23.15-13.59c8.63-3.11,17.34-4.67,26.12-4.67c8.77,0,17.48,1.56,26.12,4.67
				c8.63,3.12,16.49,7.64,23.57,13.59c6.79,6.23,12.32,14.01,16.56,23.36c4.25,9.34,6.37,20.11,6.37,32.28v159.69
				c0,12.74-2.12,23.64-6.37,32.7c-4.25,9.06-9.77,16.56-16.56,22.51c-7.08,6.23-14.94,10.9-23.57,14.02
				c-8.64,3.11-17.35,4.67-26.12,4.67c-8.78,0-17.49-1.56-26.12-4.67c-8.64-3.11-16.35-7.78-23.15-14.02
				c-7.08-5.95-12.74-13.44-16.99-22.51c-4.25-9.06-6.37-19.96-6.37-32.7V160.97z M655.16,320.66c0,10.48,2.9,18.2,8.71,23.15
				c5.8,4.96,12.67,7.43,20.6,7.43c7.92,0,14.79-2.48,20.6-7.43c5.8-4.95,8.71-12.67,8.71-23.15V160.97
				c0-10.47-2.91-18.19-8.71-23.15c-5.81-4.95-12.67-7.43-20.6-7.43c-7.93,0-14.8,2.48-20.6,7.43c-5.81,4.96-8.71,12.67-8.71,23.15
				V320.66z"/>
			<path class="st1" d="M828.02,392.01V264.18L768.56,89.62h45.87l34.83,120.19h0.85l34.83-120.19h45.87l-59.46,174.55v127.83
				H828.02z"/>
			<path class="st1" d="M909.55,392.01l67.53-302.38h36.1l67.53,302.38h-43.32l-12.74-64.98h-59.03l-12.74,64.98H909.55z
				 M1016.58,286.26l-21.23-109.57h-0.85l-21.24,109.57H1016.58z"/>
			<path class="st1" d="M1099.39,160.97c0-12.17,2.12-22.93,6.37-32.28c4.25-9.34,9.91-17.13,16.99-23.36
				c6.8-5.95,14.51-10.47,23.15-13.59c8.63-3.11,17.34-4.67,26.12-4.67c8.77,0,17.48,1.56,26.12,4.67
				c8.63,3.12,16.49,7.64,23.57,13.59c6.79,6.23,12.32,14.01,16.56,23.36c4.25,9.34,6.37,20.11,6.37,32.28v15.29h-43.32v-15.29
				c0-10.47-2.91-18.19-8.71-23.15c-5.81-4.95-12.67-7.43-20.6-7.43c-7.93,0-14.8,2.48-20.6,7.43c-5.81,4.96-8.71,12.67-8.71,23.15
				v159.69c0,10.48,2.9,18.2,8.71,23.15c5.8,4.96,12.67,7.43,20.6,7.43c7.92,0,14.79-2.48,20.6-7.43c5.8-4.95,8.71-12.67,8.71-23.15
				v-56.91h-34.4v-38.22h77.72v95.13c0,12.74-2.12,23.64-6.37,32.7c-4.25,9.06-9.77,16.56-16.56,22.51
				c-7.08,6.23-14.94,10.9-23.57,14.02c-8.64,3.11-17.35,4.67-26.12,4.67c-8.78,0-17.49-1.56-26.12-4.67
				c-8.64-3.11-16.35-7.78-23.15-14.02c-7.08-5.95-12.74-13.44-16.99-22.51c-4.25-9.06-6.37-19.96-6.37-32.7V160.97z"/>
			<path class="st1" d="M1282.86,392.01V89.62h129.11v40.77h-85.79v88.76h74.75v40.77h-74.75v88.76h85.79v43.32H1282.86z"/>
		</g>
	</g>
	<path class="st2" d="M32.57,440.43c17.94-0.56,29.51-4.6,34.7-12.18c5.19-7.75,7.78-30.55,7.78-45.47V107.64
		C60.25,87.8,51.14,76.17,47.68,72.75c-3.47-3.6-9.21-5.86-15.19-6.79V51.2h103.45l166.15,244.78h2.36V123.25
		c0-19.65-3-33.66-8.96-41.96c-5.98-8.53-17.93-13.64-35.89-15.33V51.2h104.09v14.75c-15.1,3.02-25.25,7.09-30.44,12.2
		c-5.04,5.11-7.55,16.54-7.55,34.3v342.92h-13.45L99.6,143.96h-3.3v228.03c0,17.78,2.04,41.79,6.13,49.17
		c6.44,11.92,19.65,18.35,39.65,19.27v14.75H32.57V440.43"/>
</g>
</svg>
